HIERARCHY
ROOT joint_Root
{
	OFFSET 0.0 0.0 0.0
	CHANNELS 6 Xposition Yposition Zposition Zrotation Xrotation Yrotation 
	JOINT Hips
	{
		OFFSET 4.5925 91.4895 -427.239
		CHANNELS 6 Xposition Yposition Zposition Zrotation Xrotation Yrotation 
		JOINT Spine
		{
			OFFSET 15.7357 0.0 0.0
			CHANNELS 6 Xposition Yposition Zposition Zrotation Xrotation Yrotation 
			JOINT Chest
			{
				OFFSET 8.98455 -0.406207 0.0
				CHANNELS 6 Xposition Yposition Zposition Zrotation Xrotation Yrotation 
				JOINT Neck
				{
					OFFSET 16.3773 0.0 0.0
					CHANNELS 6 Xposition Yposition Zposition Zrotation Xrotation Yrotation 
					JOINT Head
					{
						OFFSET 6.45672 0.0 0.0
						CHANNELS 6 Xposition Yposition Zposition Zrotation Xrotation Yrotation 
						End Site
						{
							OFFSET 0.0 0.0 0.0
						}
					}
				}
				JOINT Shoulder_L
				{
					OFFSET 12.9942 -0.242716 4.98039
					CHANNELS 6 Xposition Yposition Zposition Zrotation Xrotation Yrotation 
					JOINT UpperArm_L
					{
						OFFSET 5.34809 0.0 0.0
						CHANNELS 6 Xposition Yposition Zposition Zrotation Xrotation Yrotation 
						JOINT LowerArm_L
						{
							OFFSET 24.3286 1.87007e-05 0.0
							CHANNELS 6 Xposition Yposition Zposition Zrotation Xrotation Yrotation 
							JOINT Hand_L
							{
								OFFSET 22.2916 0.0 0.0
								CHANNELS 6 Xposition Yposition Zposition Zrotation Xrotation Yrotation 
								End Site
								{
									OFFSET 0.0 0.0 0.0
								}
							}
						}
					}
				}
				JOINT Shoulder_R
				{
					OFFSET 12.9945 -0.242716 -4.98039
					CHANNELS 6 Xposition Yposition Zposition Zrotation Xrotation Yrotation 
					JOINT UpperArm_R
					{
						OFFSET -5.34813 0.0 0.0
						CHANNELS 6 Xposition Yposition Zposition Zrotation Xrotation Yrotation 
						JOINT LowerArm_R
						{
							OFFSET -24.3289 0.000322201 0.0
							CHANNELS 6 Xposition Yposition Zposition Zrotation Xrotation Yrotation 
							JOINT Hand_R
							{
								OFFSET -22.2915 -0.000108084 0.0
								CHANNELS 6 Xposition Yposition Zposition Zrotation Xrotation Yrotation 
								End Site
								{
									OFFSET 0.0 0.0 0.0
								}
							}
						}
					}
				}
			}
		}
		JOINT UpperLeg_L
		{
			OFFSET -2.19248 -6.46944 0.0
			CHANNELS 6 Xposition Yposition Zposition Zrotation Xrotation Yrotation 
			JOINT LowerLeg_L
			{
				OFFSET 39.0811 0.0 -1.23785e-05
				CHANNELS 6 Xposition Yposition Zposition Zrotation Xrotation Yrotation 
				JOINT Foot_L
				{
					OFFSET 40.9854 0.0 -1.26872e-05
					CHANNELS 6 Xposition Yposition Zposition Zrotation Xrotation Yrotation 
					JOINT Toes_L
					{
						OFFSET 11.7543 0.0 0.0
						CHANNELS 6 Xposition Yposition Zposition Zrotation Xrotation Yrotation 
						End Site
						{
							OFFSET 0.0 0.0 0.0
						}
					}
				}
			}
		}
		JOINT UpperLeg_R
		{
			OFFSET -2.19251 6.46944 0.0
			CHANNELS 6 Xposition Yposition Zposition Zrotation Xrotation Yrotation 
			JOINT LowerLeg_R
			{
				OFFSET -39.0811 -0.00228153 -0.0401928
				CHANNELS 6 Xposition Yposition Zposition Zrotation Xrotation Yrotation 
				JOINT Foot_R
				{
					OFFSET -40.9854 0.0 0.0
					CHANNELS 6 Xposition Yposition Zposition Zrotation Xrotation Yrotation 
					JOINT Toes_R
					{
						OFFSET -11.7543 0.0 0.0
						CHANNELS 6 Xposition Yposition Zposition Zrotation Xrotation Yrotation 
						End Site
						{
							OFFSET 0.0 0.0 0.0
						}
					}
				}
			}
		}
	}
}
MOTION
Frames:	6
Frame Time:	0.0333333
0.000000 0.000000 0.000000 0.000000 0.000000 -0.000000 1.000830 87.611400 474.300000 -89.383800 -0.630539 174.691000 15.735700 0.000005 -0.000001 59.160600 83.320300 -58.451900 8.984550 -0.406207 -0.000000 3.770140 -6.864120 1.643280 16.377300 -0.000001 -0.000001 -6.674780 -1.964620 -1.291250 6.456720 -0.000001 -0.000000 -11.067000 0.887295 -1.985980 12.994200 -0.242716 4.980390 -90.205600 0.775182 -75.153500 5.348090 -0.000007 -0.000001 -67.364500 27.062300 -19.022700 24.328600 0.000019 0.000005 17.139500 -8.315870 -115.126000 22.291600 -0.000001 0.000005 10.961500 5.493080 -6.261340 12.994500 -0.242716 -4.980390 87.567700 8.697280 -74.309200 -5.348130 -0.000001 -0.000004 -67.009200 37.047900 18.152700 -24.328900 0.000322 -0.000009 -8.829670 0.913747 -95.861800 -22.291500 -0.000108 -0.000004 13.056300 5.608700 -11.872900 -2.192480 -6.469440 -0.000000 -177.496000 -4.334260 -4.722480 39.081100 -0.000007 -0.000012 0.002441 -0.003290 36.554700 40.985400 -0.000006 -0.000013 2.641020 0.081561 -78.509400 11.754300 -0.000000 0.000003 -0.367396 -0.470494 -19.603900 -2.192510 6.469440 -0.000001 -176.761000 10.509300 147.174000 -39.081100 -0.002282 -0.040193 0.044823 -0.016407 68.519400 -40.985400 0.000008 0.000006 3.504630 0.457952 -63.768800 -11.754300 -0.000006 -0.000006 -0.018583 -0.159309 -23.079300
0.000000 0.000000 0.000000 0.000000 0.000000 -0.000000 1.590220 89.724600 470.106000 -88.780700 -0.432094 173.006000 15.735700 0.000005 -0.000001 52.500500 83.515000 -51.226700 8.984550 -0.406207 -0.000000 2.636650 -7.945850 2.731210 16.377300 -0.000001 -0.000001 -7.018070 -1.927040 -0.636774 6.456720 -0.000001 -0.000000 -11.027800 1.637770 -0.598501 12.994200 -0.242716 4.980390 -89.899500 -0.389879 -75.548100 5.348090 -0.000007 -0.000001 -66.324600 28.743100 -21.490700 24.328600 0.000019 0.000005 18.429900 -9.373800 -116.048000 22.291600 -0.000001 0.000005 9.270690 5.478060 -5.672320 12.994500 -0.242716 -4.980390 87.783400 7.700740 -73.887800 -5.348130 -0.000001 -0.000004 -66.789400 37.283600 19.385700 -24.328900 0.000322 -0.000009 -8.425220 1.100320 -97.385300 -22.291500 -0.000108 -0.000004 11.775700 5.599890 -11.332700 -2.192480 -6.469440 -0.000000 -176.042000 -6.159750 -2.656010 39.081100 -0.000007 -0.000012 0.004821 -0.007675 32.131000 40.985400 -0.000006 -0.000013 2.707920 1.732290 -69.211900 11.754300 -0.000000 0.000003 -0.040720 -0.262979 -27.381600 -2.192510 6.469440 -0.000001 -175.064000 11.116200 146.963000 -39.081100 -0.002282 -0.040193 0.023287 -0.013797 55.483100 -40.985400 0.000008 0.000006 3.225070 2.573990 -65.291100 -11.754300 -0.000006 -0.000006 -0.018511 -0.158896 -23.062300
0.000000 0.000000 0.000000 0.000000 0.000000 -0.000000 2.148380 91.141300 465.712000 -88.623400 -0.097613 171.813000 15.735700 0.000005 -0.000001 48.609700 83.662400 -46.943300 8.984550 -0.406207 -0.000000 1.889390 -8.461080 3.474000 16.377300 -0.000001 -0.000001 -7.181120 -1.928470 -0.036539 6.456720 -0.000001 -0.000000 -11.233600 1.860990 1.200250 12.994200 -0.242716 4.980390 -89.659600 -1.322120 -75.559400 5.348090 -0.000007 -0.000001 -64.398600 30.753300 -23.903900 24.328600 0.000019 0.000005 19.527300 -10.119500 -116.354000 22.291600 -0.000001 0.000005 7.464170 5.455750 -4.841110 12.994500 -0.242716 -4.980390 88.065200 6.689450 -73.828300 -5.348130 -0.000001 -0.000004 -67.155000 36.465000 20.081100 -24.328900 0.000322 -0.000009 -8.661480 1.350760 -98.795500 -22.291500 -0.000108 -0.000004 10.918500 5.590760 -10.802800 -2.192480 -6.469440 -0.000000 -174.930000 -8.255760 -1.277330 39.081100 -0.000007 -0.000012 0.015690 -0.027043 30.121200 40.985400 -0.000006 -0.000013 3.155960 4.526140 -60.519300 11.754300 -0.000000 0.000003 -0.089118 -0.416729 -33.919900 -2.192510 6.469440 -0.000001 -174.491000 10.271300 148.539000 -39.081100 -0.002282 -0.040193 0.010031 -0.007522 41.938900 -40.985400 0.000008 0.000006 3.168070 3.997840 -66.374500 -11.754300 -0.000006 -0.000006 -0.019340 -0.163606 -23.256200
0.000000 0.000000 0.000000 0.000000 0.000000 -0.000000 2.622620 91.511400 460.775000 -89.010600 0.209755 171.960000 15.735700 0.000005 -0.000001 48.125600 83.540100 -46.273300 8.984550 -0.406207 -0.000000 2.021050 -8.711390 3.860620 16.377300 -0.000001 -0.000001 -6.838170 -1.716770 0.369980 6.456720 -0.000001 -0.000000 -11.506700 1.675610 3.118480 12.994200 -0.242716 4.980390 -89.471200 -2.029390 -75.390900 5.348090 -0.000007 -0.000001 -62.949700 32.312800 -25.280700 24.328600 0.000019 0.000005 19.369600 -9.995950 -116.277000 22.291600 -0.000001 0.000005 5.940610 5.442760 -4.381360 12.994500 -0.242716 -4.980390 88.396800 5.653620 -74.140100 -5.348130 -0.000001 -0.000004 -67.635000 35.113600 19.908000 -24.328900 0.000322 -0.000009 -8.750270 1.655950 -100.632000 -22.291500 -0.000108 -0.000004 10.182300 5.580070 -10.214100 -2.192480 -6.469440 -0.000000 -174.632000 -7.493060 0.661470 39.081100 -0.000007 -0.000012 0.025168 -0.042838 30.434600 40.985400 -0.000006 -0.000013 3.242710 5.774060 -54.193800 11.754300 -0.000000 0.000003 -0.110783 -0.470568 -36.273000 -2.192510 6.469440 -0.000001 -174.907000 9.749740 151.102000 -39.081100 -0.002282 -0.040193 0.005115 -0.002813 32.899700 -40.985400 0.000008 0.000006 3.976630 3.471740 -67.978500 -11.754300 -0.000006 -0.000006 -0.019473 -0.164351 -23.286900
0.000000 0.000000 0.000000 0.000000 0.000000 -0.000000 3.205040 90.762500 455.518000 -89.708000 0.325273 172.917000 15.735700 0.000005 -0.000001 49.287200 83.373500 -47.421100 8.984550 -0.406207 -0.000000 2.451120 -8.724370 3.921250 16.377300 -0.000001 -0.000001 -5.970560 -1.547200 0.834889 6.456720 -0.000001 -0.000000 -11.199400 1.501970 4.719160 12.994200 -0.242716 4.980390 -89.414000 -2.168620 -74.873600 5.348090 -0.000007 -0.000001 -61.849900 33.817500 -25.685600 24.328600 0.000019 0.000005 19.433700 -9.619770 -115.344000 22.291600 -0.000001 0.000005 5.352090 5.442060 -4.359740 12.994500 -0.242716 -4.980390 88.517000 5.285840 -74.303900 -5.348130 -0.000001 -0.000004 -67.220000 34.424000 18.701700 -24.328900 0.000322 -0.000009 -9.722330 2.299090 -103.174000 -22.291500 -0.000108 -0.000004 10.083800 5.573280 -9.857250 -2.192480 -6.469440 -0.000000 -175.197000 -3.937250 1.800700 39.081100 -0.000007 -0.000012 0.024502 -0.035516 34.599400 40.985400 -0.000006 -0.000013 3.489290 5.136550 -50.929400 11.754300 -0.000000 0.000003 -0.082264 -0.398243 -33.120600 -2.192510 6.469440 -0.000001 -175.622000 10.744800 151.930000 -39.081100 -0.002282 -0.040193 -0.001592 0.007667 32.519700 -40.985400 0.000008 0.000006 3.874100 1.884140 -67.750800 -11.754300 -0.000006 -0.000006 -0.020124 -0.167976 -23.436200
0.000000 0.000000 0.000000 0.000000 0.000000 -0.000000 3.964460 89.011300 450.114000 -90.045900 0.084782 174.287000 15.735700 0.000005 -0.000001 52.537500 83.339700 -50.668100 8.984550 -0.406207 -0.000000 2.970270 -8.172580 3.952080 16.377300 -0.000001 -0.000001 -4.943390 -1.791300 1.389680 6.456720 -0.000001 -0.000000 -10.024200 1.222040 6.137990 12.994200 -0.242716 4.980390 -89.564600 -1.573150 -74.526800 5.348090 -0.000007 -0.000001 -61.234600 35.157000 -24.664300 24.328600 0.000019 0.000005 20.138300 -9.355410 -113.908000 22.291600 -0.000001 0.000005 4.947670 5.434020 -4.077880 12.994500 -0.242716 -4.980390 88.211800 6.271070 -74.049100 -5.348130 -0.000001 -0.000004 -65.381400 34.239800 16.393900 -24.328900 0.000322 -0.000009 -10.864000 3.224450 -106.333000 -22.291500 -0.000108 -0.000004 10.363000 5.569990 -9.687800 -2.192480 -6.469440 -0.000000 -175.191000 -1.034530 1.099460 39.081100 -0.000007 -0.000012 0.022541 -0.024023 43.173400 40.985400 -0.000006 -0.000013 2.270530 4.650740 -49.209800 11.754300 -0.000000 0.000003 -0.028310 -0.209624 -25.160800 -2.192510 6.469440 -0.000001 -176.122000 12.181700 151.938000 -39.081100 -0.002282 -0.040193 -0.249791 0.297721 40.365400 -40.985400 0.000008 0.000006 4.771240 -0.122516 -69.112600 -11.754300 -0.000006 -0.000006 -0.008652 -0.093271 -20.371900
